<svg width="16" height="16" viewBox="0 0 16 16" fill="none" xmlns="http://www.w3.org/2000/svg">
<path d="M16 0H0V16H16V0Z" fill="white" fill-opacity="0.01"/>
<path d="M1.6665 6.33333H14.3332V13.3333C14.3332 13.7015 14.0347 14 13.6665 14H2.33317C1.96498 14 1.6665 13.7015 1.6665 13.3333V6.33333Z" stroke="#012C57" stroke-width="1.33333" stroke-linejoin="round"/>
<path d="M1.6665 2.99999C1.6665 2.6318 1.96498 2.33333 2.33317 2.33333H13.6665C14.0347 2.33333 14.3332 2.6318 14.3332 2.99999V6.33333H1.6665V2.99999Z" stroke="#012C57" stroke-width="1.33333" stroke-linejoin="round"/>
<path d="M5.3335 1.33333V3.99999" stroke="#012C57" stroke-width="1.33333" stroke-linecap="round" stroke-linejoin="round"/>
<path d="M10.6665 1.33333V3.99999" stroke="#012C57" stroke-width="1.33333" stroke-linecap="round" stroke-linejoin="round"/>
<path d="M9.3335 11.3333H11.3335" stroke="#012C57" stroke-width="1.33333" stroke-linecap="round" stroke-linejoin="round"/>
<path d="M4.6665 11.3333H6.6665" stroke="#012C57" stroke-width="1.33333" stroke-linecap="round" stroke-linejoin="round"/>
<path d="M9.3335 8.66667H11.3335" stroke="#012C57" stroke-width="1.33333" stroke-linecap="round" stroke-linejoin="round"/>
<path d="M4.6665 8.66667H6.6665" stroke="#012C57" stroke-width="1.33333" stroke-linecap="round" stroke-linejoin="round"/>
</svg>
