<svg width="9" height="9" viewBox="0 0 9 9" fill="none" xmlns="http://www.w3.org/2000/svg">
<path d="M8.94663 0.413333C8.87898 0.250434 8.74952 0.120983 8.58662 0.0533333C8.50648 0.0191726 8.42041 0.00105332 8.33329 0H1.66663C1.48981 0 1.32025 0.070238 1.19522 0.195262C1.0702 0.320287 0.999959 0.489856 0.999959 0.666667C0.999959 0.843478 1.0702 1.01305 1.19522 1.13807C1.32025 1.2631 1.48981 1.33333 1.66663 1.33333H6.72663L1.19329 6.86C1.13081 6.92198 1.08121 6.99571 1.04737 7.07695C1.01352 7.15819 0.996094 7.24532 0.996094 7.33333C0.996094 7.42134 1.01352 7.50848 1.04737 7.58972C1.08121 7.67096 1.13081 7.74469 1.19329 7.80667C1.25527 7.86915 1.329 7.91875 1.41024 7.95259C1.49148 7.98644 1.57862 8.00387 1.66663 8.00387C1.75463 8.00387 1.84177 7.98644 1.92301 7.95259C2.00425 7.91875 2.07798 7.86915 2.13996 7.80667L7.66663 2.27333V7.33333C7.66663 7.51014 7.73686 7.67971 7.86189 7.80474C7.98691 7.92976 8.15648 8 8.33329 8C8.5101 8 8.67967 7.92976 8.8047 7.80474C8.92972 7.67971 8.99996 7.51014 8.99996 7.33333V0.666667C8.99891 0.579548 8.98079 0.493481 8.94663 0.413333V0.413333Z" fill="#67809A"/>
</svg>
