<svg width="16" height="16" viewBox="0 0 16 16" fill="none" xmlns="http://www.w3.org/2000/svg">
<path d="M16 0H0V16H16V0Z" fill="white" fill-opacity="0.01"/>
<path fill-rule="evenodd" clip-rule="evenodd" d="M8.00016 14.6667C11.6821 14.6667 14.6668 11.6819 14.6668 8C14.6668 4.31809 11.6821 1.33333 8.00016 1.33333C4.31826 1.33333 1.3335 4.31809 1.3335 8C1.3335 11.6819 4.31826 14.6667 8.00016 14.6667Z" stroke="#012C57" stroke-width="1.33333" stroke-linecap="round" stroke-linejoin="round"/>
<path d="M1.3335 8H14.6668" stroke="#012C57" stroke-width="1.33333" stroke-linecap="round" stroke-linejoin="round"/>
<path fill-rule="evenodd" clip-rule="evenodd" d="M8.00016 14.6667C9.47293 14.6667 10.6668 11.6819 10.6668 8C10.6668 4.31809 9.47293 1.33333 8.00016 1.33333C6.5274 1.33333 5.3335 4.31809 5.3335 8C5.3335 11.6819 6.5274 14.6667 8.00016 14.6667Z" stroke="#012C57" stroke-width="1.33333" stroke-linecap="round" stroke-linejoin="round"/>
<path d="M3.28613 3.38071C4.49256 4.58714 6.15923 5.33334 8.00016 5.33334C9.84113 5.33334 11.5078 4.58714 12.7142 3.38071" stroke="#012C57" stroke-width="1.33333" stroke-linecap="round" stroke-linejoin="round"/>
<path d="M12.7142 12.6193C11.5078 11.4129 9.84113 10.6667 8.00016 10.6667C6.15923 10.6667 4.49256 11.4129 3.28613 12.6193" stroke="#012C57" stroke-width="1.33333" stroke-linecap="round" stroke-linejoin="round"/>
</svg>
