<svg width="16" height="17" viewBox="0 0 16 17" fill="none" xmlns="http://www.w3.org/2000/svg">
<g clip-path="url(#clip0_476_848)">
<path d="M16 0.5H0V16.5H16V0.5Z" fill="white" fill-opacity="0.01"/>
<path d="M8 15.1667C8 15.1667 13 11.1667 13 6.83333C13 4.0719 10.7614 1.83333 8 1.83333C5.23857 1.83333 3 4.0719 3 6.83333C3 11.1667 8 15.1667 8 15.1667Z" stroke="#67809A" stroke-width="1.33333" stroke-linejoin="round"/>
<path d="M8 8.83333C9.10457 8.83333 10 7.93789 10 6.83333C10 5.72876 9.10457 4.83333 8 4.83333C6.89543 4.83333 6 5.72876 6 6.83333C6 7.93789 6.89543 8.83333 8 8.83333Z" stroke="#67809A" stroke-width="1.33333" stroke-linejoin="round"/>
</g>
<defs>
<clipPath id="clip0_476_848">
<rect width="16" height="16" fill="white" transform="translate(0 0.5)"/>
</clipPath>
</defs>
</svg>
