<svg width="16" height="17" viewBox="0 0 16 17" fill="none" xmlns="http://www.w3.org/2000/svg">
<g clip-path="url(#clip0_476_819)">
<path d="M16 0.5H0V16.5H16V0.5Z" fill="white" fill-opacity="0.01"/>
<path d="M7.66683 14.5H6.3335H5.00016H3.00016C2.63197 14.5 2.3335 14.2015 2.3335 13.8333V3.16667C2.3335 2.79848 2.63197 2.5 3.00016 2.5H12.3335C12.7017 2.5 13.0002 2.79848 13.0002 3.16667V5.5V7" stroke="#2CA58D" stroke-width="1.33333" stroke-linecap="round" stroke-linejoin="round"/>
<path d="M12.2123 9.5C13.0156 9.5 13.6668 10.1268 13.6668 10.9C13.6668 11.9065 12.6971 12.7667 12.2123 13.2333C11.8891 13.5444 11.485 13.8556 11.0002 14.1667C10.5153 13.8556 10.1113 13.5444 9.78803 13.2333C9.3032 12.7667 8.3335 11.9065 8.3335 10.9C8.3335 10.1268 8.98473 9.5 9.78803 9.5C10.294 9.5 10.7396 9.74863 11.0002 10.1258C11.2608 9.74863 11.7064 9.5 12.2123 9.5Z" stroke="#2CA58D" stroke-width="1.33333" stroke-linejoin="round"/>
<path d="M5 5.16667H10.3333" stroke="#2CA58D" stroke-width="1.33333" stroke-linecap="round"/>
</g>
<defs>
<clipPath id="clip0_476_819">
<rect width="16" height="16" fill="white" transform="translate(0 0.5)"/>
</clipPath>
</defs>
</svg>
