<svg width="16" height="16" viewBox="0 0 16 16" fill="none" xmlns="http://www.w3.org/2000/svg">
<path d="M16 0H0V16H16V0Z" fill="white" fill-opacity="0.01"/>
<path d="M14.0562 9.74836L9.7542 14.0504C9.52914 14.2757 9.2237 14.4023 8.9052 14.4023C8.5867 14.4023 8.2813 14.2757 8.0562 14.0504L2.6665 8.66666V2.66666H8.6665L14.0562 8.05636C14.5215 8.5244 14.5215 9.28033 14.0562 9.74836Z" stroke="#67809A" stroke-width="1.33333" stroke-linejoin="round"/>
<path fill-rule="evenodd" clip-rule="evenodd" d="M6.16683 7C6.62706 7 7.00016 6.6269 7.00016 6.16667C7.00016 5.70644 6.62706 5.33334 6.16683 5.33334C5.7066 5.33334 5.3335 5.70644 5.3335 6.16667C5.3335 6.6269 5.7066 7 6.16683 7Z" fill="#67809A"/>
</svg>
