<svg width="16" height="16" viewBox="0 0 16 16" fill="none" xmlns="http://www.w3.org/2000/svg">
<path d="M16 0H0V16H16V0Z" fill="white" fill-opacity="0.01"/>
<path d="M8 14.6667C8 14.6667 13 10.6667 13 6.33333C13 3.5719 10.7614 1.33333 8 1.33333C5.23857 1.33333 3 3.5719 3 6.33333C3 10.6667 8 14.6667 8 14.6667Z" stroke="#012C57" stroke-width="1.33333" stroke-linejoin="round"/>
<path d="M8 8.33333C9.10457 8.33333 10 7.43789 10 6.33333C10 5.22876 9.10457 4.33333 8 4.33333C6.89543 4.33333 6 5.22876 6 6.33333C6 7.43789 6.89543 8.33333 8 8.33333Z" stroke="#012C57" stroke-width="1.33333" stroke-linejoin="round"/>
</svg>
