<svg width="16" height="16" viewBox="0 0 16 16" fill="none" xmlns="http://www.w3.org/2000/svg">
<path d="M16 0H0V16H16V0Z" fill="white" fill-opacity="0.01"/>
<path d="M7.99984 6.66667C9.2885 6.66667 10.3332 5.622 10.3332 4.33333C10.3332 3.04467 9.2885 2 7.99984 2C6.71117 2 5.6665 3.04467 5.6665 4.33333C5.6665 5.622 6.71117 6.66667 7.99984 6.66667Z" stroke="#67809A" stroke-width="1.33333" stroke-linecap="round" stroke-linejoin="round"/>
<path d="M4 2.41823C3.3955 2.83988 3 3.5404 3 4.33333C3 5.1821 3.4532 5.92503 4.1308 6.33333" stroke="#67809A" stroke-width="1.33333" stroke-linecap="round" stroke-linejoin="round"/>
<path d="M12 2.41823C12.6045 2.83988 13 3.5404 13 4.33333C13 5.12623 12.6045 5.8268 12 6.24843" stroke="#67809A" stroke-width="1.33333" stroke-linecap="round" stroke-linejoin="round"/>
<path d="M4 13.3333V14H12V13.3333C12 12.0908 12 11.4696 11.797 10.9795C11.5264 10.3261 11.0072 9.80697 10.3538 9.53634C9.86377 9.33334 9.2425 9.33334 8 9.33334C6.7575 9.33334 6.13623 9.33334 5.64617 9.53634C4.99277 9.80697 4.47363 10.3261 4.203 10.9795C4 11.4696 4 12.0908 4 13.3333Z" stroke="#67809A" stroke-width="1.33333" stroke-linecap="round" stroke-linejoin="round"/>
<path d="M14.6665 14V13.6C14.6665 12.1065 14.6665 11.3598 14.3758 10.7894C14.1202 10.2876 13.7122 9.87964 13.2104 9.62397" stroke="#67809A" stroke-width="1.33333" stroke-linecap="round" stroke-linejoin="round"/>
<path d="M1.3335 14V13.6C1.3335 12.1065 1.3335 11.3598 1.62415 10.7894C1.87981 10.2876 2.28776 9.87964 2.78952 9.62397" stroke="#67809A" stroke-width="1.33333" stroke-linecap="round" stroke-linejoin="round"/>
</svg>
