<svg width="16" height="16" viewBox="0 0 16 16" fill="none" xmlns="http://www.w3.org/2000/svg">
<path d="M2 3.08521L8.00287 1.33333L14 3.08521V6.6779C14 10.4541 11.5834 13.4731 8.00087 14.6668C4.41737 13.4732 2 10.4533 2 6.67623V3.08521Z" stroke="#012C57" stroke-width="1.33333" stroke-linejoin="round"/>
<path d="M8.00016 7.66666C8.92064 7.66666 9.66683 6.92047 9.66683 5.99999C9.66683 5.07952 8.92064 4.33333 8.00016 4.33333C7.07969 4.33333 6.3335 5.07952 6.3335 5.99999C6.3335 6.92047 7.07969 7.66666 8.00016 7.66666Z" stroke="#012C57" stroke-width="1.33333" stroke-linecap="round" stroke-linejoin="round"/>
<path d="M10.6668 10.3333C10.6668 8.86057 9.47293 7.66667 8.00016 7.66667C6.5274 7.66667 5.3335 8.86057 5.3335 10.3333" stroke="#012C57" stroke-width="1.33333" stroke-linecap="round" stroke-linejoin="round"/>
</svg>
