<svg width="16" height="16" viewBox="0 0 16 16" fill="none" xmlns="http://www.w3.org/2000/svg">
<path d="M16 0H0V16H16V0Z" fill="white" fill-opacity="0.01"/>
<path d="M3.35103 2.33333H1.3335C1.3335 2.33333 1.3335 5.33333 1.3335 7C1.3335 8.66666 2.66683 10.6667 5.3335 10.6667C8.00016 10.6667 9.3335 8.66666 9.3335 7C9.3335 5.33333 9.3335 2.33333 9.3335 2.33333H7.31596M3.35103 1.33333V3.33333M7.31596 1.33333V3.33333" stroke="#012C57" stroke-width="1.33333" stroke-linecap="round" stroke-linejoin="round"/>
<path d="M13.3333 7.66667C14.0697 7.66667 14.6667 7.06971 14.6667 6.33333C14.6667 5.59695 14.0697 5 13.3333 5C12.597 5 12 5.59695 12 6.33333C12 7.06971 12.597 7.66667 13.3333 7.66667Z" stroke="#012C57" stroke-width="1.33333" stroke-linecap="round" stroke-linejoin="round"/>
<path d="M5.3335 10.6667C5.3335 12.8758 7.12436 14.6667 9.3335 14.6667C11.5426 14.6667 13.3335 12.8758 13.3335 10.6667V7.66667" stroke="#012C57" stroke-width="1.33333" stroke-linecap="round" stroke-linejoin="round"/>
</svg>
